<svg xmlns="http://www.w3.org/2000/svg" viewBox="0 0 900 600"><defs><clipPath id="a" transform="translate(130 60)"><path fill="none" d="M0 0h640v480H0z"/></clipPath></defs><g clip-path="url(#a)"><path fill="#fff" d="M0 0h900v600H0z"/><path fill="#dc171d" d="M350 0h200v600H350z"/><path fill="#012a87" d="M0 200h900v200H0z"/><path fill="#fff" d="M455.61 228L450 210.72 444.39 228h-18.17l14.7 10.67-5.61 17.28L450 245.27l14.69 10.68-5.61-17.28 14.7-10.67h-18.17zM592.41 293.9l14.7-10.68h-18.16l-5.62-17.27-5.61 17.27h-18.16l14.69 10.68-5.61 17.27 14.69-10.67 14.7 10.67-5.62-17.27zM510.84 361.33l-5.61-17.28-5.61 17.28h-18.17l14.7 10.67-5.62 17.28 14.7-10.68 14.69 10.68-5.61-17.28L529 361.33h-18.16zM322.28 283.22l-5.61-17.27-5.62 17.27h-18.16l14.69 10.68-5.61 17.27 14.7-10.67 14.69 10.67-5.61-17.27 14.69-10.68h-18.16zM400.38 361.33l-5.61-17.28-5.61 17.28H371L385.69 372l-5.61 17.28 14.69-10.68 14.7 10.68-5.62-17.28 14.7-10.67h-18.17z"/></g></svg>